<svg width="350" height="32" viewBox="0 0 350 32" fill="none" xmlns="http://www.w3.org/2000/svg">
<path d="M16.9545 13.986C16.9545 14.9393 16.7118 15.8493 16.2265 16.716C15.7585 17.5827 15.1172 18.3453 14.3025 19.004C13.5052 19.6453 12.5605 20.1567 11.4685 20.538C10.3938 20.9193 9.24984 21.11 8.0365 21.11C7.60317 21.11 7.2565 21.058 6.9965 20.954C6.75384 20.8327 6.4765 20.6073 6.1645 20.278C5.29784 22.1673 4.58717 23.9093 4.0325 25.504C3.49517 27.0813 3.0705 28.6153 2.7585 30.106C2.09984 29.95 1.5625 29.6727 1.1465 29.274C0.730502 28.8927 0.349169 28.4073 0.00250244 27.818C0.175836 27.4887 0.383835 27.0553 0.626502 26.518C0.869169 25.9807 1.16384 25.322 1.5105 24.542C1.85717 23.7447 2.25584 22.8 2.7065 21.708C3.1745 20.5987 3.7205 19.3073 4.3445 17.834C4.62184 17.158 4.8645 16.5687 5.0725 16.066C5.2805 15.5633 5.4625 15.0953 5.6185 14.662C5.7745 14.2113 5.91317 13.7693 6.0345 13.336C6.17317 12.9027 6.31184 12.426 6.4505 11.906C5.63584 12.166 4.88184 12.4693 4.1885 12.816C3.5125 13.1627 2.94917 13.5267 2.4985 13.908C2.3425 13.804 2.17784 13.648 2.0045 13.44C1.8485 13.232 1.70117 13.0067 1.5625 12.764C1.42384 12.504 1.3025 12.244 1.1985 11.984C1.0945 11.724 1.03384 11.49 1.0165 11.282C1.51917 10.9353 2.14317 10.6147 2.8885 10.32C3.63384 10.0253 4.43117 9.77401 5.2805 9.56601C6.12984 9.34068 7.00517 9.16735 7.9065 9.04601C8.82517 8.92468 9.7005 8.86401 10.5325 8.86401C11.5205 8.86401 12.4132 8.99401 13.2105 9.25401C14.0078 9.49668 14.6838 9.84335 15.2385 10.294C15.7932 10.7447 16.2178 11.282 16.5125 11.906C16.8072 12.53 16.9545 13.2233 16.9545 13.986ZM12.3265 10.866C11.6678 10.866 10.9918 10.918 10.2985 11.022L10.6105 11.49C10.4372 11.7153 10.2205 12.0533 9.9605 12.504C9.7005 12.9547 9.4145 13.5007 9.1025 14.142C8.7905 14.766 8.44384 15.468 8.0625 16.248C7.6985 17.028 7.3085 17.8513 6.8925 18.718C8.2445 18.718 9.47517 18.5967 10.5845 18.354C11.6938 18.094 12.6385 17.7473 13.4185 17.314C14.2158 16.8633 14.8312 16.3433 15.2645 15.754C15.7152 15.1647 15.9405 14.532 15.9405 13.856C15.9405 12.9547 15.6372 12.2353 15.0305 11.698C14.4238 11.1433 13.5225 10.866 12.3265 10.866Z" fill="white"/>
<path d="M24.7025 17.236C24.6332 18.3107 24.4425 19.238 24.1305 20.018C23.8185 20.7807 23.3678 21.4567 22.7785 22.046C22.2065 22.618 21.5045 23.138 20.6725 23.606C19.8405 24.074 18.8698 24.5247 17.7605 24.958C17.7605 25.062 17.7518 25.1747 17.7345 25.296C17.7345 25.4 17.7345 25.5127 17.7345 25.634C17.7345 25.8593 17.7518 26.0933 17.7865 26.336C17.8212 26.5787 17.8818 26.804 17.9685 27.012C18.0552 27.22 18.1765 27.3933 18.3325 27.532C18.4885 27.6533 18.6878 27.714 18.9305 27.714C19.3985 27.714 19.8578 27.61 20.3085 27.402C20.7592 27.194 21.1838 26.9427 21.5825 26.648C21.9985 26.336 22.3798 26.0067 22.7265 25.66C23.0905 25.296 23.4112 24.9667 23.6885 24.672C23.8618 24.828 24.0092 24.9753 24.1305 25.114C23.3505 26.154 22.4925 27.0207 21.5565 27.714C20.6378 28.39 19.7625 28.8233 18.9305 29.014C17.7345 28.8753 16.7985 28.442 16.1225 27.714C15.4638 26.9687 15.1345 26.076 15.1345 25.036C15.1345 24.3253 15.2298 23.606 15.4205 22.878C15.6285 22.1327 15.9058 21.422 16.2525 20.746C16.6165 20.0527 17.0325 19.4027 17.5005 18.796C17.9858 18.1893 18.4972 17.6607 19.0345 17.21C19.5892 16.7593 20.1525 16.404 20.7245 16.144C21.3138 15.884 21.8945 15.754 22.4665 15.754C23.2638 15.858 24.0092 16.352 24.7025 17.236ZM22.9085 18.094C22.4405 18.1633 21.9552 18.354 21.4525 18.666C20.9498 18.978 20.4732 19.394 20.0225 19.914C19.5892 20.434 19.1905 21.0407 18.8265 21.734C18.4625 22.4273 18.1765 23.1727 17.9685 23.97C19.3552 23.2767 20.5078 22.4273 21.4265 21.422C22.3452 20.3993 22.8392 19.29 22.9085 18.094Z" fill="white"/>
<path d="M25.2822 27.48C25.3689 26.9773 25.5162 26.3187 25.7242 25.504C25.9496 24.672 26.2096 23.7967 26.5042 22.878C26.7989 21.942 27.1109 21.006 27.4402 20.07C27.7696 19.134 28.0902 18.2933 28.4022 17.548C28.6276 17.0107 28.8269 16.5947 29.0002 16.3C29.1736 15.988 29.3642 15.728 29.5722 15.52C29.8149 15.5547 30.0662 15.6153 30.3262 15.702C30.5862 15.7887 30.8376 15.8927 31.0802 16.014C31.3229 16.1353 31.5396 16.2653 31.7302 16.404C31.9209 16.5253 32.0682 16.6467 32.1722 16.768C31.7042 17.3227 31.2882 17.9553 30.9242 18.666C30.5776 19.3767 30.2222 20.2867 29.8582 21.396C30.7942 20.564 31.6176 19.7667 32.3282 19.004C33.0562 18.2413 33.7322 17.392 34.3562 16.456C34.4602 16.3693 34.6422 16.326 34.9022 16.326C35.1449 16.326 35.3789 16.3693 35.6042 16.456C35.8296 16.5253 35.9856 16.6293 36.0722 16.768C35.7602 17.6 35.6042 18.4233 35.6042 19.238C35.6042 20.0007 35.7169 20.5727 35.9422 20.954C35.9249 21.058 35.8036 21.2573 35.5782 21.552C35.3702 21.8467 35.1362 22.124 34.8762 22.384C34.4082 22.1413 33.9922 21.812 33.6282 21.396C33.2642 20.9627 32.9956 20.4947 32.8222 19.992C32.0076 20.564 31.3142 21.1273 30.7422 21.682C30.1702 22.2193 29.6762 22.826 29.2602 23.502C28.8616 24.1607 28.5149 24.9233 28.2202 25.79C27.9429 26.6567 27.6742 27.688 27.4142 28.884C27.2582 28.8667 27.0676 28.806 26.8422 28.702C26.6342 28.6153 26.4176 28.5027 26.1922 28.364C25.9842 28.2253 25.7936 28.078 25.6202 27.922C25.4469 27.766 25.3342 27.6187 25.2822 27.48Z" fill="white"/>
<path d="M44.9563 17.652C44.939 17.9813 44.8783 18.328 44.7743 18.692C44.6876 19.0387 44.575 19.3593 44.4363 19.654C44.2976 19.9313 44.1503 20.1653 43.9943 20.356C43.8383 20.5467 43.691 20.642 43.5523 20.642C43.3616 20.6247 43.249 20.4947 43.2143 20.252C43.2143 20.2 43.2316 20.122 43.2663 20.018C43.3183 19.8967 43.3703 19.7667 43.4223 19.628C43.4743 19.4893 43.5176 19.3507 43.5523 19.212C43.6043 19.0733 43.6303 18.952 43.6303 18.848C43.6303 18.6053 43.5696 18.406 43.4483 18.25C43.3443 18.0767 43.197 17.99 43.0063 17.99C42.313 17.99 41.7843 18.4233 41.4203 19.29C41.0563 20.1567 40.8743 21.4307 40.8743 23.112C40.8743 23.2853 40.883 23.3893 40.9003 23.424C41.2643 23.4067 41.585 23.398 41.8623 23.398C42.157 23.3807 42.443 23.372 42.7203 23.372C42.7376 23.4067 42.7463 23.476 42.7463 23.58C42.7463 23.736 42.7116 23.8487 42.6423 23.918C42.2436 24.0047 41.923 24.0827 41.6803 24.152C41.455 24.204 41.2816 24.256 41.1603 24.308C41.039 24.36 40.961 24.4207 40.9263 24.49C40.909 24.542 40.9003 24.62 40.9003 24.724C40.9003 24.8627 40.9003 25.0013 40.9003 25.14C40.9176 25.2787 40.9263 25.452 40.9263 25.66C40.9263 27.116 40.5276 28.286 39.7303 29.17C38.9503 30.054 37.8583 30.5653 36.4543 30.704C36.2116 30.6867 35.9603 30.6173 35.7003 30.496C35.4403 30.3747 35.189 30.2187 34.9463 30.028C34.721 29.8373 34.5216 29.6207 34.3483 29.378C34.175 29.1527 34.0536 28.9187 33.9843 28.676C33.9843 28.0173 34.123 27.3933 34.4003 26.804C34.6776 26.1973 35.0503 25.6687 35.5183 25.218C36.0036 24.75 36.567 24.3773 37.2083 24.1C37.867 23.8053 38.5776 23.632 39.3403 23.58C39.3403 23.1467 39.297 22.722 39.2103 22.306C39.1236 21.89 39.0283 21.4913 38.9243 21.11C38.8376 20.7113 38.751 20.33 38.6643 19.966C38.5776 19.5847 38.5343 19.212 38.5343 18.848C38.5343 18.38 38.6296 17.9207 38.8203 17.47C39.011 17.002 39.2623 16.5773 39.5743 16.196C39.8863 15.7973 40.2503 15.4593 40.6663 15.182C41.0823 14.9047 41.5156 14.714 41.9663 14.61C42.157 14.662 42.4083 14.818 42.7203 15.078C43.0496 15.3207 43.3703 15.598 43.6823 15.91C43.9943 16.222 44.2716 16.5427 44.5143 16.872C44.757 17.184 44.9043 17.444 44.9563 17.652ZM36.3763 29.508C36.7923 29.3347 37.1823 29.0833 37.5463 28.754C37.9276 28.4247 38.257 28.052 38.5343 27.636C38.8116 27.22 39.0283 26.778 39.1843 26.31C39.3576 25.842 39.4443 25.3827 39.4443 24.932C39.0976 24.984 38.7163 25.1487 38.3003 25.426C37.8843 25.686 37.4943 26.0067 37.1303 26.388C36.7663 26.752 36.463 27.1333 36.2203 27.532C35.9776 27.9307 35.8563 28.2773 35.8563 28.572C35.8563 28.9533 36.0296 29.2653 36.3763 29.508Z" fill="white"/>
<path d="M48.0426 28.91C47.0546 28.806 46.2659 28.3727 45.6766 27.61C45.0872 26.8473 44.7926 25.8767 44.7926 24.698C44.7926 24.0047 44.8966 23.2853 45.1046 22.54C45.3126 21.7947 45.6072 21.0753 45.9886 20.382C46.3699 19.6713 46.8206 19.004 47.3406 18.38C47.8606 17.756 48.4239 17.2187 49.0306 16.768C49.9839 16.0573 50.8766 15.702 51.7086 15.702C52.2632 15.9967 52.8092 16.612 53.3466 17.548C53.4332 17.548 53.5112 17.548 53.5806 17.548C53.6499 17.5307 53.7279 17.522 53.8146 17.522C54.7332 17.522 55.1926 18.3367 55.1926 19.966C55.1926 21.058 55.0106 22.098 54.6466 23.086C54.2999 24.0567 53.8059 24.9407 53.1646 25.738C52.5406 26.5353 51.7866 27.2113 50.9026 27.766C50.0359 28.3033 49.0826 28.6847 48.0426 28.91ZM49.3686 20.72C49.0739 21.1187 48.7966 21.552 48.5366 22.02C48.2766 22.488 48.0512 22.9647 47.8606 23.45C47.6699 23.918 47.5226 24.3773 47.4186 24.828C47.3146 25.2613 47.2626 25.6513 47.2626 25.998C47.2626 26.414 47.3319 26.8127 47.4706 27.194C47.6092 27.5753 47.7652 27.792 47.9386 27.844C48.7186 27.6707 49.4292 27.35 50.0706 26.882C50.7292 26.3967 51.2926 25.7987 51.7606 25.088C52.2459 24.3773 52.6186 23.5713 52.8786 22.67C53.1559 21.7687 53.2946 20.8067 53.2946 19.784C53.2946 19.3333 53.2686 18.978 53.2166 18.718C53.1646 18.458 53.0779 18.2327 52.9566 18.042C52.1939 18.2673 51.5092 18.6313 50.9026 19.134C50.3132 19.6367 49.8019 20.1653 49.3686 20.72Z" fill="white"/>
<path d="M60.6631 15.39C61.1138 15.5287 61.5385 15.8407 61.9371 16.326C62.3358 16.794 62.6305 17.314 62.8211 17.886C62.6305 18.354 62.3358 18.9173 61.9371 19.576C61.5385 20.2347 61.1398 20.9107 60.7411 21.604C60.3425 22.28 59.9785 22.93 59.6491 23.554C59.3371 24.1607 59.1551 24.6633 59.1031 25.062C59.3805 24.7673 59.6838 24.4293 60.0131 24.048C60.3598 23.6493 60.6891 23.2593 61.0011 22.878C61.3305 22.4793 61.6338 22.124 61.9111 21.812C62.1885 21.4827 62.4051 21.24 62.5611 21.084C62.8905 20.7373 63.2805 20.3387 63.7311 19.888C64.1818 19.42 64.6498 18.9867 65.1351 18.588C65.6378 18.172 66.1405 17.8253 66.6431 17.548C67.1458 17.2533 67.6051 17.106 68.0211 17.106C68.4718 17.106 68.8445 17.262 69.1391 17.574C69.4511 17.8687 69.6938 18.1807 69.8671 18.51C69.8671 18.5447 69.7978 18.5967 69.6591 18.666C69.5378 18.718 69.3558 18.8827 69.1131 19.16C68.8705 19.472 68.5931 19.9053 68.2812 20.46C67.9865 20.9973 67.6918 21.5867 67.3971 22.228C67.1198 22.852 66.8858 23.4933 66.6951 24.152C66.5045 24.8107 66.4091 25.4087 66.4091 25.946C66.4091 26.3793 66.4611 26.6567 66.5651 26.778C66.6865 26.8993 66.8511 26.96 67.0591 26.96C67.2498 26.96 67.4491 26.9167 67.6571 26.83C67.8651 26.7433 68.0298 26.7 68.1511 26.7C68.2205 26.7347 68.2725 26.8127 68.3071 26.934C68.3591 27.038 68.3851 27.1333 68.3851 27.22C68.2465 27.3413 68.0818 27.4627 67.8911 27.584C67.7005 27.7053 67.5011 27.818 67.2931 27.922C67.0851 28.026 66.8771 28.1127 66.6691 28.182C66.4785 28.2513 66.3051 28.286 66.1491 28.286C65.6465 28.286 65.2305 28.208 64.9011 28.052C64.5891 27.9133 64.3378 27.7227 64.1471 27.48C63.9738 27.2373 63.8525 26.9513 63.7831 26.622C63.7138 26.2753 63.6791 25.9113 63.6791 25.53C63.6791 25.322 63.6965 25.088 63.7311 24.828C63.7658 24.568 63.8351 24.2647 63.9391 23.918C64.0431 23.554 64.1905 23.1293 64.3811 22.644C64.5718 22.1413 64.8145 21.5433 65.1091 20.85C65.0745 20.85 64.8405 20.9713 64.4072 21.214C63.9738 21.4567 63.5058 21.8293 63.0031 22.332C62.1885 23.112 61.4518 23.8833 60.7931 24.646C60.1518 25.4087 59.4931 26.258 58.8171 27.194C58.4358 27.7313 58.0978 28.182 57.8031 28.546C57.5258 28.9273 57.2831 29.1787 57.0751 29.3C56.7111 29.092 56.4425 28.7973 56.2691 28.416C56.0958 28.052 55.9658 27.6707 55.8791 27.272C55.8791 26.9427 55.9225 26.5267 56.0091 26.024C56.1131 25.5213 56.2431 24.9667 56.3991 24.36C56.5725 23.736 56.7805 23.086 57.0231 22.41C57.2658 21.734 57.5345 21.058 57.8291 20.382C58.4878 18.8567 59.0858 17.6607 59.6231 16.794C60.1778 15.9273 60.5245 15.4593 60.6631 15.39Z" fill="white"/>
<path d="M79.4622 17.496C79.6355 17.496 79.8348 17.5307 80.0602 17.6C80.3028 17.652 80.5195 17.73 80.7102 17.834C80.9008 17.9207 81.0568 18.016 81.1782 18.12C81.3168 18.224 81.3862 18.3193 81.3862 18.406C81.0395 19.134 80.7188 19.8707 80.4242 20.616C80.1295 21.344 79.8782 22.046 79.6702 22.722C79.4622 23.398 79.2975 24.0307 79.1762 24.62C79.0722 25.2093 79.0202 25.7207 79.0202 26.154C79.0202 26.6393 79.0722 27.0467 79.1762 27.376C79.2802 27.688 79.4535 27.9133 79.6962 28.052C79.4882 28.1907 79.2195 28.3033 78.8902 28.39C78.5608 28.4767 78.2662 28.52 78.0062 28.52C77.0702 28.52 76.6022 27.8787 76.6022 26.596C76.6022 25.608 76.9315 24.256 77.5902 22.54C77.2435 23.3373 76.8448 24.0913 76.3942 24.802C75.9435 25.4953 75.4842 26.1107 75.0162 26.648C74.5482 27.1853 74.0715 27.6273 73.5862 27.974C73.1182 28.3033 72.6848 28.5027 72.2862 28.572C71.6448 28.5373 71.1248 28.234 70.7262 27.662C70.3275 27.0727 70.1282 26.3273 70.1282 25.426C70.1282 24.4553 70.3362 23.4327 70.7522 22.358C71.1682 21.2833 71.6968 20.2867 72.3382 19.368C72.9968 18.4493 73.7075 17.6867 74.4702 17.08C75.2328 16.456 75.9695 16.1267 76.6802 16.092C76.8535 16.144 77.0442 16.248 77.2522 16.404C77.4775 16.56 77.6855 16.742 77.8762 16.95C78.0842 17.158 78.2575 17.3747 78.3962 17.6C78.5348 17.808 78.6128 17.99 78.6302 18.146C77.9368 18.25 77.2175 18.588 76.4722 19.16C75.7442 19.732 75.0768 20.4253 74.4702 21.24C73.8808 22.0373 73.3955 22.8953 73.0142 23.814C72.6328 24.7327 72.4422 25.5907 72.4422 26.388C72.4422 26.7174 72.5635 26.9253 72.8062 27.012C73.3088 26.908 73.8895 26.4833 74.5482 25.738C75.2068 24.9753 76.0042 23.8053 76.9402 22.228C77.1135 21.916 77.3042 21.5693 77.5122 21.188C77.7375 20.8067 77.9628 20.408 78.1882 19.992C78.4135 19.576 78.6302 19.16 78.8382 18.744C79.0635 18.3107 79.2715 17.8947 79.4622 17.496Z" fill="white"/>
<path d="M82.6791 26.336C82.6791 25.5733 82.8611 24.5073 83.2251 23.138C83.5891 21.7513 84.1004 20.1393 84.7591 18.302C85.8337 15.3727 86.8391 12.9373 87.7751 10.996C88.7284 9.03735 89.6557 7.51201 90.5571 6.42001C90.7651 6.45468 91.0164 6.54135 91.3111 6.68001C91.623 6.81868 91.9264 6.97468 92.2211 7.14801C92.5157 7.30401 92.7757 7.46868 93.0011 7.64201C93.2437 7.81535 93.3997 7.95401 93.4691 8.05801C92.1171 9.65268 90.9297 11.3687 89.9071 13.206C88.8844 15.0433 87.9484 17.1493 87.0991 19.524C86.3711 21.5693 85.8164 23.4153 85.4351 25.062C85.0537 26.6913 84.8631 28.052 84.8631 29.144C84.8631 29.4387 84.8631 29.6207 84.8631 29.69C84.8631 29.7593 84.8717 29.8287 84.8891 29.898C84.6464 29.8633 84.4384 29.8027 84.2651 29.716C84.0917 29.6293 83.9791 29.5253 83.9271 29.404C83.8924 29.3173 83.7971 29.1873 83.6411 29.014C83.4851 28.858 83.3464 28.7367 83.2251 28.65C83.0691 28.546 82.939 28.2773 82.8351 27.844C82.7311 27.3933 82.6791 26.8907 82.6791 26.336Z" fill="white"/>
<path d="M104.899 8.78601C105.558 8.78601 106.242 8.90735 106.953 9.15001C107.664 9.39268 108.288 9.70468 108.825 10.086C108.652 10.97 108.487 11.7673 108.331 12.478C108.192 13.1887 108.062 13.8387 107.941 14.428C107.82 15 107.698 15.5287 107.577 16.014C107.473 16.482 107.369 16.924 107.265 17.34C106.849 18.9 106.416 20.3127 105.965 21.578C105.532 22.826 105.064 23.9527 104.561 24.958C104.076 25.9633 103.556 26.856 103.001 27.636C102.464 28.416 101.883 29.1007 101.259 29.69C100.652 30.262 100.046 30.73 99.4389 31.094C98.8322 31.458 98.2689 31.692 97.7489 31.796C97.0556 31.796 96.4142 31.718 95.8249 31.562C95.2356 31.406 94.7242 31.1893 94.2909 30.912C93.8749 30.652 93.5456 30.3313 93.3029 29.95C93.0776 29.586 92.9649 29.1787 92.9649 28.728C92.9649 28.2427 93.0862 27.636 93.3289 26.908C93.5716 26.1627 93.9442 25.2873 94.4469 24.282C94.6549 24.2993 94.8976 24.3513 95.1749 24.438C95.4522 24.5247 95.7296 24.6287 96.0069 24.75C96.2842 24.8713 96.5356 25.01 96.7609 25.166C96.9862 25.3047 97.1509 25.4433 97.2549 25.582C96.7002 26.154 96.2496 26.7867 95.9029 27.48C95.5562 28.156 95.3829 28.7453 95.3829 29.248C95.3829 29.5427 95.4349 29.8027 95.5389 30.028C95.6602 30.2707 95.8596 30.4873 96.1369 30.678C97.1942 30.2793 98.2256 29.534 99.2309 28.442C100.236 27.3673 101.129 26.024 101.909 24.412C102.377 23.4587 102.802 22.3667 103.183 21.136C103.564 19.9053 103.885 18.6747 104.145 17.444C104.422 16.196 104.63 15.0087 104.769 13.882C104.925 12.738 105.003 11.776 105.003 10.996C105.003 10.8747 104.994 10.71 104.977 10.502C104.977 10.2767 104.968 10.0513 104.951 9.82601C104.951 9.58335 104.942 9.36668 104.925 9.17601C104.908 8.98535 104.899 8.85535 104.899 8.78601Z" fill="white"/>
<path d="M111.037 28.91C110.049 28.806 109.26 28.3727 108.671 27.61C108.081 26.8473 107.787 25.8767 107.787 24.698C107.787 24.0047 107.891 23.2853 108.099 22.54C108.307 21.7947 108.601 21.0753 108.983 20.382C109.364 19.6713 109.815 19.004 110.335 18.38C110.855 17.756 111.418 17.2187 112.025 16.768C112.978 16.0573 113.871 15.702 114.703 15.702C115.257 15.9967 115.803 16.612 116.341 17.548C116.427 17.548 116.505 17.548 116.575 17.548C116.644 17.5307 116.722 17.522 116.809 17.522C117.727 17.522 118.187 18.3367 118.187 19.966C118.187 21.058 118.005 22.098 117.641 23.086C117.294 24.0567 116.8 24.9407 116.159 25.738C115.535 26.5353 114.781 27.2113 113.897 27.766C113.03 28.3033 112.077 28.6847 111.037 28.91ZM112.363 20.72C112.068 21.1187 111.791 21.552 111.531 22.02C111.271 22.488 111.045 22.9647 110.855 23.45C110.664 23.918 110.517 24.3773 110.413 24.828C110.309 25.2613 110.257 25.6513 110.257 25.998C110.257 26.414 110.326 26.8127 110.465 27.194C110.603 27.5753 110.759 27.792 110.933 27.844C111.713 27.6707 112.423 27.35 113.065 26.882C113.723 26.3967 114.287 25.7987 114.755 25.088C115.24 24.3773 115.613 23.5713 115.873 22.67C116.15 21.7687 116.289 20.8067 116.289 19.784C116.289 19.3333 116.263 18.978 116.211 18.718C116.159 18.458 116.072 18.2327 115.951 18.042C115.188 18.2673 114.503 18.6313 113.897 19.134C113.307 19.6367 112.796 20.1653 112.363 20.72Z" fill="white"/>
<path d="M126.517 27.428C126.188 27.1507 125.963 26.804 125.841 26.388C125.737 25.972 125.685 25.6167 125.685 25.322C125.685 24.958 125.729 24.646 125.815 24.386C125.746 24.386 125.59 24.5247 125.347 24.802C125.105 25.0793 124.836 25.4087 124.541 25.79C124.264 26.1713 123.987 26.544 123.709 26.908C123.432 27.272 123.224 27.5407 123.085 27.714C122.86 27.9567 122.643 28.1473 122.435 28.286C122.245 28.4247 122.089 28.5027 121.967 28.52C121.69 28.5027 121.395 28.442 121.083 28.338C120.789 28.2513 120.503 28.1213 120.225 27.948C119.965 27.7747 119.731 27.5667 119.523 27.324C119.333 27.0813 119.203 26.804 119.133 26.492C119.133 26.0067 119.142 25.608 119.159 25.296C119.194 24.984 119.255 24.646 119.341 24.282C119.497 23.6233 119.723 22.878 120.017 22.046C120.329 21.214 120.685 20.3993 121.083 19.602C121.482 18.7873 121.924 18.0333 122.409 17.34C122.912 16.6293 123.441 16.0747 123.995 15.676C124.151 15.676 124.333 15.6933 124.541 15.728C124.749 15.7453 124.957 15.7887 125.165 15.858C125.391 15.9273 125.599 16.014 125.789 16.118C125.997 16.2047 126.171 16.326 126.309 16.482C126.153 16.6553 125.755 17.236 125.113 18.224C124.489 19.212 123.787 20.6333 123.007 22.488C122.921 22.6787 122.817 22.956 122.695 23.32C122.574 23.684 122.453 24.0653 122.331 24.464C122.21 24.8627 122.106 25.2527 122.019 25.634C121.95 26.0153 121.915 26.3187 121.915 26.544C121.915 26.6827 121.933 26.7867 121.967 26.856C122.019 26.9253 122.063 26.9773 122.097 27.012C122.357 26.908 122.687 26.622 123.085 26.154C123.484 25.686 124.039 24.9667 124.749 23.996C124.923 23.7533 125.122 23.476 125.347 23.164C125.59 22.852 125.833 22.5227 126.075 22.176C126.318 21.812 126.543 21.4393 126.751 21.058C126.977 20.6767 127.159 20.2953 127.297 19.914C127.367 19.706 127.453 19.4633 127.557 19.186C127.679 18.8913 127.817 18.588 127.973 18.276C128.147 17.964 128.337 17.652 128.545 17.34C128.771 17.0107 129.031 16.7073 129.325 16.43C129.551 16.43 129.793 16.456 130.053 16.508C130.313 16.56 130.556 16.6293 130.781 16.716C131.024 16.7853 131.232 16.872 131.405 16.976C131.579 17.0627 131.709 17.158 131.795 17.262C131.483 18.0247 131.137 18.7787 130.755 19.524C130.374 20.2693 130.019 21.006 129.689 21.734C129.36 22.4447 129.083 23.1553 128.857 23.866C128.632 24.5767 128.519 25.27 128.519 25.946C128.519 26.31 128.545 26.6307 128.597 26.908C128.667 27.168 128.736 27.3933 128.805 27.584C128.875 27.7573 128.935 27.9047 128.987 28.026C129.057 28.1473 129.091 28.2513 129.091 28.338C129.091 28.3553 129.074 28.3813 129.039 28.416C129.022 28.4333 129.005 28.442 128.987 28.442C128.866 28.442 128.71 28.416 128.519 28.364C128.329 28.312 128.112 28.234 127.869 28.13C127.644 28.0433 127.41 27.9394 127.167 27.818C126.942 27.6967 126.725 27.5667 126.517 27.428Z" fill="white"/>
<path d="M131.669 27.48C131.756 26.9773 131.903 26.3187 132.111 25.504C132.336 24.672 132.596 23.7967 132.891 22.878C133.186 21.942 133.498 21.006 133.827 20.07C134.156 19.134 134.477 18.2933 134.789 17.548C135.014 17.0107 135.214 16.5947 135.387 16.3C135.56 15.988 135.751 15.728 135.959 15.52C136.202 15.5547 136.453 15.6153 136.713 15.702C136.973 15.7887 137.224 15.8927 137.467 16.014C137.71 16.1353 137.926 16.2653 138.117 16.404C138.308 16.5253 138.455 16.6467 138.559 16.768C138.091 17.3227 137.675 17.9553 137.311 18.666C136.964 19.3767 136.609 20.2867 136.245 21.396C137.181 20.564 138.004 19.7667 138.715 19.004C139.443 18.2413 140.119 17.392 140.743 16.456C140.847 16.3693 141.029 16.326 141.289 16.326C141.532 16.326 141.766 16.3693 141.991 16.456C142.216 16.5253 142.372 16.6293 142.459 16.768C142.147 17.6 141.991 18.4233 141.991 19.238C141.991 20.0007 142.104 20.5727 142.329 20.954C142.312 21.058 142.19 21.2573 141.965 21.552C141.757 21.8467 141.523 22.124 141.263 22.384C140.795 22.1413 140.379 21.812 140.015 21.396C139.651 20.9627 139.382 20.4947 139.209 19.992C138.394 20.564 137.701 21.1273 137.129 21.682C136.557 22.2193 136.063 22.826 135.647 23.502C135.248 24.1607 134.902 24.9233 134.607 25.79C134.33 26.6567 134.061 27.688 133.801 28.884C133.645 28.8667 133.454 28.806 133.229 28.702C133.021 28.6153 132.804 28.5027 132.579 28.364C132.371 28.2253 132.18 28.078 132.007 27.922C131.834 27.766 131.721 27.6187 131.669 27.48Z" fill="white"/>
<path d="M146.991 15.39C147.442 15.5287 147.867 15.8407 148.265 16.326C148.664 16.794 148.959 17.314 149.149 17.886C148.959 18.354 148.664 18.9173 148.265 19.576C147.867 20.2347 147.468 20.9107 147.069 21.604C146.671 22.28 146.307 22.93 145.977 23.554C145.665 24.1607 145.483 24.6633 145.431 25.062C145.709 24.7673 146.012 24.4293 146.341 24.048C146.688 23.6493 147.017 23.2593 147.329 22.878C147.659 22.4793 147.962 22.124 148.239 21.812C148.517 21.4827 148.733 21.24 148.889 21.084C149.219 20.7373 149.609 20.3387 150.059 19.888C150.51 19.42 150.978 18.9867 151.463 18.588C151.966 18.172 152.469 17.8253 152.971 17.548C153.474 17.2533 153.933 17.106 154.349 17.106C154.8 17.106 155.173 17.262 155.467 17.574C155.779 17.8687 156.022 18.1807 156.195 18.51C156.195 18.5447 156.126 18.5967 155.987 18.666C155.866 18.718 155.684 18.8827 155.441 19.16C155.199 19.472 154.921 19.9053 154.609 20.46C154.315 20.9973 154.02 21.5867 153.725 22.228C153.448 22.852 153.214 23.4933 153.023 24.152C152.833 24.8107 152.737 25.4087 152.737 25.946C152.737 26.3793 152.789 26.6567 152.893 26.778C153.015 26.8993 153.179 26.96 153.387 26.96C153.578 26.96 153.777 26.9167 153.985 26.83C154.193 26.7433 154.358 26.7 154.479 26.7C154.549 26.7347 154.601 26.8127 154.635 26.934C154.687 27.038 154.713 27.1333 154.713 27.22C154.575 27.3413 154.41 27.4627 154.219 27.584C154.029 27.7053 153.829 27.818 153.621 27.922C153.413 28.026 153.205 28.1127 152.997 28.182C152.807 28.2513 152.633 28.286 152.477 28.286C151.975 28.286 151.559 28.208 151.229 28.052C150.917 27.9133 150.666 27.7227 150.475 27.48C150.302 27.2373 150.181 26.9513 150.111 26.622C150.042 26.2753 150.007 25.9113 150.007 25.53C150.007 25.322 150.025 25.088 150.059 24.828C150.094 24.568 150.163 24.2647 150.267 23.918C150.371 23.554 150.519 23.1293 150.709 22.644C150.9 22.1413 151.143 21.5433 151.437 20.85C151.403 20.85 151.169 20.9713 150.735 21.214C150.302 21.4567 149.834 21.8293 149.331 22.332C148.517 23.112 147.78 23.8833 147.121 24.646C146.48 25.4087 145.821 26.258 145.145 27.194C144.764 27.7313 144.426 28.182 144.131 28.546C143.854 28.9273 143.611 29.1787 143.403 29.3C143.039 29.092 142.771 28.7973 142.597 28.416C142.424 28.052 142.294 27.6707 142.207 27.272C142.207 26.9427 142.251 26.5267 142.337 26.024C142.441 25.5213 142.571 24.9667 142.727 24.36C142.901 23.736 143.109 23.086 143.351 22.41C143.594 21.734 143.863 21.058 144.157 20.382C144.816 18.8567 145.414 17.6607 145.951 16.794C146.506 15.9273 146.853 15.4593 146.991 15.39Z" fill="white"/>
<path d="M165.79 17.496C165.964 17.496 166.163 17.5307 166.388 17.6C166.631 17.652 166.848 17.73 167.038 17.834C167.229 17.9207 167.385 18.016 167.506 18.12C167.645 18.224 167.714 18.3193 167.714 18.406C167.368 19.134 167.047 19.8707 166.752 20.616C166.458 21.344 166.206 22.046 165.998 22.722C165.79 23.398 165.626 24.0307 165.504 24.62C165.4 25.2093 165.348 25.7207 165.348 26.154C165.348 26.6393 165.4 27.0467 165.504 27.376C165.608 27.688 165.782 27.9133 166.024 28.052C165.816 28.1907 165.548 28.3033 165.218 28.39C164.889 28.4767 164.594 28.52 164.334 28.52C163.398 28.52 162.93 27.8787 162.93 26.596C162.93 25.608 163.26 24.256 163.918 22.54C163.572 23.3373 163.173 24.0913 162.722 24.802C162.272 25.4953 161.812 26.1107 161.344 26.648C160.876 27.1853 160.4 27.6273 159.914 27.974C159.446 28.3033 159.013 28.5027 158.614 28.572C157.973 28.5373 157.453 28.234 157.054 27.662C156.656 27.0727 156.456 26.3273 156.456 25.426C156.456 24.4553 156.664 23.4327 157.08 22.358C157.496 21.2833 158.025 20.2867 158.666 19.368C159.325 18.4493 160.036 17.6867 160.798 17.08C161.561 16.456 162.298 16.1267 163.008 16.092C163.182 16.144 163.372 16.248 163.58 16.404C163.806 16.56 164.014 16.742 164.204 16.95C164.412 17.158 164.586 17.3747 164.724 17.6C164.863 17.808 164.941 17.99 164.958 18.146C164.265 18.25 163.546 18.588 162.8 19.16C162.072 19.732 161.405 20.4253 160.798 21.24C160.209 22.0373 159.724 22.8953 159.342 23.814C158.961 24.7327 158.77 25.5907 158.77 26.388C158.77 26.7174 158.892 26.9253 159.134 27.012C159.637 26.908 160.218 26.4833 160.876 25.738C161.535 24.9753 162.332 23.8053 163.268 22.228C163.442 21.916 163.632 21.5693 163.84 21.188C164.066 20.8067 164.291 20.408 164.516 19.992C164.742 19.576 164.958 19.16 165.166 18.744C165.392 18.3107 165.6 17.8947 165.79 17.496Z" fill="white"/>
<path d="M169.007 26.336C169.007 25.5733 169.189 24.5073 169.553 23.138C169.917 21.7513 170.429 20.1393 171.087 18.302C172.162 15.3727 173.167 12.9373 174.103 10.996C175.057 9.03735 175.984 7.51201 176.885 6.42001C177.093 6.45468 177.345 6.54135 177.639 6.68001C177.951 6.81868 178.255 6.97468 178.549 7.14801C178.844 7.30401 179.104 7.46868 179.329 7.64201C179.572 7.81535 179.728 7.95401 179.797 8.05801C178.445 9.65268 177.258 11.3687 176.235 13.206C175.213 15.0433 174.277 17.1493 173.427 19.524C172.699 21.5693 172.145 23.4153 171.763 25.062C171.382 26.6913 171.191 28.052 171.191 29.144C171.191 29.4387 171.191 29.6207 171.191 29.69C171.191 29.7593 171.2 29.8287 171.217 29.898C170.975 29.8633 170.767 29.8027 170.593 29.716C170.42 29.6293 170.307 29.5253 170.255 29.404C170.221 29.3173 170.125 29.1873 169.969 29.014C169.813 28.858 169.675 28.7367 169.553 28.65C169.397 28.546 169.267 28.2773 169.163 27.844C169.059 27.3933 169.007 26.8907 169.007 26.336Z" fill="white"/>
</svg>
